<svg width="44" height="43" viewBox="0 0 44 43" fill="none" xmlns="http://www.w3.org/2000/svg">
<path d="M6.19824 25.0376C6.19824 28.0445 13.2733 30.3439 22.1171 30.3439C30.9609 30.3439 38.0359 28.0445 38.0359 25.0376" stroke="#2157E2" stroke-width="2.35835" stroke-linecap="round" stroke-linejoin="round"/>
<path d="M6.19824 17.9624C6.19824 20.9693 13.2733 23.2687 22.1171 23.2687C30.9609 23.2687 38.0359 20.9693 38.0359 17.9624" stroke="#2157E2" stroke-width="2.35835" stroke-linecap="round" stroke-linejoin="round"/>
<path d="M22.1171 16.1939C30.9088 16.1939 38.0359 13.8182 38.0359 10.8876C38.0359 7.957 30.9088 5.5813 22.1171 5.5813C13.3253 5.5813 6.19824 7.957 6.19824 10.8876C6.19824 13.8182 13.3253 16.1939 22.1171 16.1939Z" stroke="#2157E2" stroke-width="2.35835" stroke-linecap="round" stroke-linejoin="round"/>
<path d="M6.19824 10.8875V32.1126C6.19824 35.1195 13.2733 37.4188 22.1171 37.4188C30.9609 37.4188 38.0359 35.1195 38.0359 32.1126V10.8875" stroke="#2157E2" stroke-width="2.35835" stroke-linecap="round" stroke-linejoin="round"/>
</svg>
