<svg width="43" height="43" viewBox="0 0 43 43" fill="none" xmlns="http://www.w3.org/2000/svg">
<path d="M8.84416 16.4078V30.5579M16.8036 16.4078V30.5579M25.6474 16.4078V30.5579M33.6068 16.4078V30.5579M5.30664 33.3879L5.30664 34.8029C5.30664 35.7935 5.30664 36.2888 5.49942 36.6671C5.669 37 5.93959 37.2705 6.2724 37.4401C6.65076 37.6329 7.14606 37.6329 8.13666 37.6329H34.3143C35.3049 37.6329 35.8002 37.6329 36.1786 37.4401C36.5114 37.2705 36.782 37 36.9515 36.6671C37.1443 36.2888 37.1443 35.7935 37.1443 34.8029V33.3879C37.1443 32.3973 37.1443 31.902 36.9515 31.5236C36.782 31.1908 36.5114 30.9202 36.1786 30.7506C35.8002 30.5579 35.3049 30.5579 34.3143 30.5579H8.13666C7.14606 30.5579 6.65076 30.5579 6.2724 30.7506C5.93959 30.9202 5.669 31.1908 5.49942 31.5236C5.30664 31.902 5.30664 32.3973 5.30664 33.3879ZM20.6116 5.93166L7.52274 8.84028C6.732 9.016 6.33662 9.10387 6.0415 9.31648C5.78118 9.50402 5.57678 9.75884 5.45017 10.0536C5.30664 10.3879 5.30664 10.7929 5.30664 11.6029L5.30664 13.5778C5.30664 14.5684 5.30664 15.0637 5.49942 15.442C5.669 15.7748 5.93959 16.0454 6.2724 16.215C6.65076 16.4078 7.14606 16.4078 8.13666 16.4078H34.3143C35.3049 16.4078 35.8002 16.4078 36.1786 16.215C36.5114 16.0454 36.782 15.7748 36.9515 15.442C37.1443 15.0637 37.1443 14.5684 37.1443 13.5778V11.6029C37.1443 10.7929 37.1443 10.3879 37.0008 10.0536C36.8742 9.75884 36.6698 9.50403 36.4095 9.31649C36.1143 9.10387 35.719 9.01601 34.9282 8.84029L21.8394 5.93166C21.6103 5.88075 21.4957 5.85529 21.38 5.84514C21.2772 5.83613 21.1738 5.83613 21.071 5.84514C20.9552 5.85529 20.8407 5.88075 20.6116 5.93166Z" stroke="#08678E" stroke-width="2.35835" stroke-linecap="round" stroke-linejoin="round"/>
</svg>
