<svg width="43" height="43" viewBox="0 0 43 43" fill="none" xmlns="http://www.w3.org/2000/svg">
<path d="M32.0941 37.4189C32.0941 33.666 30.6033 30.0669 27.9496 27.4133C25.296 24.7596 21.6969 23.2688 17.944 23.2688C14.1912 23.2688 10.5921 24.7596 7.93841 27.4133C5.28475 30.0669 3.79395 33.666 3.79395 37.4189" stroke="#13AB3F" stroke-width="2.35835" stroke-linecap="round" stroke-linejoin="round"/>
<path d="M39.1688 35.6499C39.1688 29.6891 35.6313 24.1529 32.0938 21.4998C33.2566 20.6274 34.1864 19.4818 34.801 18.1644C35.4156 16.847 35.6959 15.3984 35.6172 13.9468C35.5385 12.4953 35.1032 11.0855 34.3498 9.84225C33.5964 8.59902 32.5482 7.56067 31.2979 6.81909" stroke="#13AB3F" stroke-width="2.35835" stroke-linecap="round" stroke-linejoin="round"/>
<path d="M17.9444 23.2689C22.8287 23.2689 26.7882 19.3094 26.7882 14.4251C26.7882 9.5408 22.8287 5.5813 17.9444 5.5813C13.0601 5.5813 9.10059 9.5408 9.10059 14.4251C9.10059 19.3094 13.0601 23.2689 17.9444 23.2689Z" stroke="#13AB3F" stroke-width="2.35835" stroke-linecap="round" stroke-linejoin="round"/>
</svg>
