<svg width="43" height="43" viewBox="0 0 43 43" fill="none" xmlns="http://www.w3.org/2000/svg">
<path d="M7.33647 15.5218C7.0783 14.3589 7.11794 13.1496 7.45172 12.0061C7.78549 10.8626 8.40258 9.82184 9.24579 8.9804C10.089 8.13896 11.131 7.52405 12.2752 7.19267C13.4194 6.86129 14.6288 6.82419 15.7911 7.08479C16.4309 6.0842 17.3123 5.26077 18.354 4.69039C19.3957 4.12001 20.5642 3.82104 21.7519 3.82104C22.9395 3.82104 24.108 4.12001 25.1497 4.69039C26.1914 5.26077 27.0728 6.0842 27.7126 7.08479C28.8767 6.82305 30.0881 6.85999 31.2342 7.19217C32.3802 7.52435 33.4236 8.14098 34.2673 8.9847C35.111 9.82843 35.7277 10.8718 36.0599 12.0179C36.392 13.1639 36.429 14.3753 36.1672 15.5395C37.1678 16.1792 37.9913 17.0606 38.5616 18.1023C39.132 19.144 39.431 20.3125 39.431 21.5002C39.431 22.6878 39.132 23.8563 38.5616 24.898C37.9913 25.9398 37.1678 26.8211 36.1672 27.4609C36.4278 28.6233 36.3907 29.8326 36.0594 30.9768C35.728 32.121 35.1131 33.163 34.2716 34.0062C33.4302 34.8495 32.3895 35.4665 31.246 35.8003C30.1024 36.1341 28.8932 36.1737 27.7303 35.9156C27.0913 36.92 26.2093 37.7469 25.1658 38.3199C24.1223 38.8928 22.9511 39.1932 21.7607 39.1932C20.5703 39.1932 19.3991 38.8928 18.3556 38.3199C17.3121 37.7469 16.4301 36.92 15.7911 35.9156C14.6288 36.1762 13.4194 36.1391 12.2752 35.8077C11.131 35.4763 10.089 34.8614 9.24579 34.0199C8.40258 33.1785 7.78549 32.1378 7.45172 30.9943C7.11794 29.8508 7.0783 28.6415 7.33647 27.4786C6.3282 26.8405 5.49769 25.9578 4.9222 24.9125C4.3467 23.8672 4.04492 22.6934 4.04492 21.5002C4.04492 20.307 4.3467 19.1331 4.9222 18.0879C5.49769 17.0426 6.3282 16.1599 7.33647 15.5218Z" stroke="#13AB3F" stroke-width="2.35835" stroke-linecap="round" stroke-linejoin="round"/>
<path d="M16.4443 21.4999L19.9819 25.0374L27.0569 17.9624" stroke="#13AB3F" stroke-width="2.35835" stroke-linecap="round" stroke-linejoin="round"/>
</svg>
