<svg width="43" height="43" viewBox="0 0 43 43" fill="none" xmlns="http://www.w3.org/2000/svg">
<path d="M6.81108 15.7354C6.55291 14.5725 6.59255 13.3632 6.92633 12.2197C7.2601 11.0762 7.87719 10.0355 8.7204 9.19403C9.5636 8.35259 10.6056 7.73767 11.7498 7.40629C12.894 7.07492 14.1034 7.03781 15.2657 7.29841C15.9055 6.29782 16.7869 5.47439 17.8286 4.90401C18.8703 4.33364 20.0388 4.03467 21.2265 4.03467C22.4141 4.03467 23.5826 4.33364 24.6243 4.90401C25.666 5.47439 26.5474 6.29782 27.1872 7.29841C28.3513 7.03667 29.5628 7.07362 30.7088 7.4058C31.8548 7.73798 32.8982 8.35461 33.7419 9.19833C34.5857 10.042 35.2023 11.0855 35.5345 12.2315C35.8667 13.3775 35.9036 14.5889 35.6419 15.7531C36.6424 16.3929 37.4659 17.2742 38.0363 18.3159C38.6066 19.3576 38.9056 20.5262 38.9056 21.7138C38.9056 22.9014 38.6066 24.07 38.0363 25.1117C37.4659 26.1534 36.6424 27.0347 35.6419 27.6745C35.9025 28.8369 35.8654 30.0462 35.534 31.1904C35.2026 32.3347 34.5877 33.3767 33.7462 34.2199C32.9048 35.0631 31.8641 35.6802 30.7206 36.0139C29.5771 36.3477 28.3678 36.3874 27.2049 36.1292C26.5659 37.1336 25.6839 37.9606 24.6404 38.5335C23.5969 39.1064 22.4257 39.4068 21.2353 39.4068C20.0449 39.4068 18.8737 39.1064 17.8302 38.5335C16.7867 37.9606 15.9047 37.1336 15.2657 36.1292C14.1034 36.3898 12.894 36.3527 11.7498 36.0213C10.6056 35.6899 9.5636 35.075 8.7204 34.2336C7.87719 33.3921 7.2601 32.3514 6.92633 31.2079C6.59255 30.0644 6.55291 28.8551 6.81108 27.6922C5.80281 27.0541 4.9723 26.1714 4.39681 25.1261C3.82131 24.0809 3.51953 22.907 3.51953 21.7138C3.51953 20.5206 3.82131 19.3467 4.39681 18.3015C4.9723 17.2562 5.80281 16.3735 6.81108 15.7354Z" stroke="#08678E" stroke-width="2.35835" stroke-linecap="round" stroke-linejoin="round"/>
<path d="M15.9189 21.7143L19.4565 25.2518L26.5315 18.1768" stroke="#08678E" stroke-width="2.35835" stroke-linecap="round" stroke-linejoin="round"/>
</svg>
