<svg width="33" height="36" viewBox="0 0 33 36" fill="none" xmlns="http://www.w3.org/2000/svg">
<path d="M16.2988 2.43409C16.6805 2.67531 17.0509 2.89459 17.4214 3.11388C18.4316 3.70596 19.3857 4.26514 20.4634 5.29579C21.7093 6.47994 21.9338 8.74957 21.9114 9.50611L21.844 11.5126H23.9095C27.5913 11.5126 30.5884 14.4401 30.5884 18.0364C30.5884 21.6327 27.5913 24.5602 23.9095 24.5602H21.8665L21.9114 26.5667C21.9338 27.3451 21.7093 29.6148 20.4634 30.788C19.3745 31.8186 18.4204 32.3778 17.4214 32.9699C17.0509 33.1892 16.6693 33.4084 16.2988 33.6497C15.9172 33.4084 15.5468 33.1892 15.1763 32.9699C14.1661 32.3778 13.2119 31.8186 12.1343 30.788C10.8883 29.6038 10.6638 27.3342 10.6863 26.5776L10.7536 24.5712H8.68823C5.0064 24.5712 2.00929 21.6437 2.00929 18.0474C2.00929 14.451 5.0064 11.5236 8.68823 11.5236H10.7312C10.7312 11.5236 10.6863 10.756 10.6863 9.51708C10.6863 8.65089 10.8883 6.46898 12.1343 5.29579C13.2232 4.26514 14.1773 3.70596 15.1763 3.11388C15.5468 2.89459 15.9284 2.67531 16.2988 2.43409ZM16.2988 0C14.7049 1.37055 12.8976 1.84201 10.7312 3.90332C8.56475 5.96462 8.677 9.5719 8.677 9.5719C3.88388 9.5719 0 13.3656 0 18.0474C0 22.7291 3.88388 26.5228 8.677 26.5228C8.677 26.5228 8.56475 30.1301 10.7312 32.1914C12.8976 34.2527 14.6937 34.7242 16.2988 36.0947C17.8928 34.7242 19.7 34.2527 21.8665 32.1914C24.0329 30.1301 23.9207 26.5228 23.9207 26.5228C28.7138 26.5228 32.5977 22.7291 32.5977 18.0474C32.5977 13.3656 28.7138 9.5719 23.9207 9.5719C23.9207 9.5719 24.0329 5.96462 21.8665 3.90332C19.7 1.84201 17.904 1.37055 16.2988 0Z" fill="#679436"/>
<path d="M27.0861 18.0475C18.1958 17.0169 17.3427 16.1836 16.2988 7.51074C15.2436 16.1945 14.3905 17.0278 5.51147 18.0475C14.4018 19.0782 15.2549 19.9114 16.2988 28.5843C17.354 19.9005 18.2071 19.0672 27.0861 18.0475Z" fill="#679436"/>
</svg>
