<svg width="93" height="24" viewBox="0 0 93 24" fill="none" xmlns="http://www.w3.org/2000/svg">
<g opacity="0.24" clip-path="url(#clip0_20831_89746)">
<path d="M11.1979 1.62273C11.4524 1.78354 11.6993 1.92973 11.9463 2.07592C12.6198 2.47064 13.2559 2.84343 13.9743 3.53053C14.8049 4.31996 14.9546 5.83305 14.9396 6.33741L14.8947 7.67506H16.2717C18.7262 7.67506 20.7243 9.62672 20.7243 12.0243C20.7243 14.4218 18.7262 16.3735 16.2717 16.3735H14.9097L14.9396 17.7111C14.9546 18.2301 14.8049 19.7432 13.9743 20.5253C13.2484 21.2124 12.6123 21.5852 11.9463 21.9799C11.6993 22.1261 11.4449 22.2723 11.1979 22.4331C10.9435 22.2723 10.6965 22.1261 10.4496 21.9799C9.77608 21.5852 9.13999 21.2124 8.42159 20.5253C7.59093 19.7359 7.44126 18.2228 7.45623 17.7184L7.50113 16.3808H6.12418C3.66963 16.3808 1.67156 14.4291 1.67156 12.0316C1.67156 9.63403 3.66963 7.68237 6.12418 7.68237H7.48616C7.48616 7.68237 7.45623 7.1707 7.45623 6.34472C7.45623 5.76726 7.59093 4.31265 8.42159 3.53053C9.14748 2.84343 9.78356 2.47064 10.4496 2.07592C10.6965 1.92973 10.951 1.78354 11.1979 1.62273ZM11.1979 0C10.1353 0.913698 8.93046 1.22801 7.48616 2.60221C6.04187 3.97641 6.1167 6.38126 6.1167 6.38126C2.92129 6.38126 0.332031 8.91038 0.332031 12.0316C0.332031 15.1528 2.92129 17.6819 6.1167 17.6819C6.1167 17.6819 6.04187 20.0867 7.48616 21.4609C8.93046 22.8351 10.1278 23.1494 11.1979 24.0631C12.2606 23.1494 13.4654 22.8351 14.9097 21.4609C16.354 20.0867 16.2792 17.6819 16.2792 17.6819C19.4746 17.6819 22.0638 15.1528 22.0638 12.0316C22.0638 8.91038 19.4746 6.38126 16.2792 6.38126C16.2792 6.38126 16.354 3.97641 14.9097 2.60221C13.4654 1.22801 12.2681 0.913698 11.1979 0Z" fill="#679436"/>
<path d="M18.3894 12.0313C12.4626 11.3442 11.8938 10.7887 11.1979 5.00684C10.4945 10.796 9.92572 11.3516 4.00635 12.0313C9.9332 12.7184 10.5019 13.274 11.1979 19.0559C11.9013 13.2667 12.4701 12.7111 18.3894 12.0313Z" fill="#679436"/>
<path d="M33.3619 9.04655C32.7523 9.04655 32.1501 9.13368 31.548 9.31522C30.9532 9.49676 30.4328 9.74365 30.0017 10.0486L30.9978 5.50293H27.6525L24.8721 18.2759H28.1134L28.3067 17.3828C28.9906 18.167 29.9868 18.5591 31.2803 18.5591C32.8713 18.5591 34.1722 18.138 35.1833 17.2884C36.1943 16.446 36.856 15.2914 37.1756 13.8246C37.2649 13.4252 37.3095 13.0259 37.3095 12.6119C37.3095 11.5155 36.9601 10.6513 36.2612 10.0123C35.5624 9.37331 34.596 9.05381 33.3619 9.05381M33.7262 13.8246C33.5849 14.5072 33.2653 15.0446 32.7523 15.4367C32.2468 15.8288 31.6446 16.0249 30.9607 16.0249C30.4551 16.0249 30.024 15.8941 29.682 15.64C29.2136 15.2914 28.9906 14.7033 29.117 14.1441L29.2062 13.7302C29.3623 13.0113 29.7935 12.3578 30.4551 11.9947C30.4551 11.9947 30.4626 11.9947 30.47 11.9875C30.9384 11.7333 31.429 11.6026 31.942 11.6026C33.1909 11.6026 33.8154 12.1109 33.8154 13.1348C33.8154 13.3817 33.7931 13.614 33.7411 13.8246" fill="#2A395D"/>
<path d="M38.6178 17.5854C37.8966 16.9392 37.5398 16.0605 37.5398 14.9568C37.5398 14.659 37.5844 14.2814 37.6736 13.8167C37.8743 12.8872 38.2609 12.0522 38.8259 11.326C39.3909 10.5999 40.0823 10.0407 40.9075 9.64134C41.7252 9.24196 42.6248 9.0459 43.5912 9.0459C44.2306 9.0459 44.7956 9.13303 45.2862 9.30731C45.7843 9.48159 46.1857 9.72848 46.4905 10.0552L46.6615 9.3291H50.0218L48.074 18.2753H44.8327L45.026 17.3821C43.9927 18.1664 42.8255 18.5585 41.5171 18.5585C40.3053 18.5585 39.3463 18.239 38.6252 17.5927M44.4015 15.6393C44.4015 15.6393 44.409 15.6393 44.4164 15.6321C45.0706 15.269 45.4944 14.6155 45.6505 13.9038L45.7546 13.4246C45.8735 12.88 45.6579 12.3208 45.2044 11.9868C44.855 11.7327 44.4238 11.6019 43.9183 11.6019C43.2344 11.6019 42.6322 11.798 42.1267 12.1974C41.6212 12.5968 41.2866 13.1341 41.1379 13.8167C41.0859 14.0273 41.0636 14.2597 41.0636 14.5066C41.0636 15.5159 41.6955 16.0169 42.9519 16.0169C43.4574 16.0169 43.9481 15.8935 44.409 15.6321" fill="#2A395D"/>
<path d="M58.3333 17.5854C57.6122 16.9392 57.2554 16.0605 57.2554 14.9568C57.2554 14.659 57.3 14.2814 57.3892 13.8167C57.5899 12.8872 57.9765 12.0522 58.5415 11.326C59.1065 10.5999 59.7979 10.0407 60.6231 9.64134C61.4408 9.24196 62.3404 9.0459 63.3068 9.0459C63.9461 9.0459 64.5111 9.13303 65.0018 9.30731C65.4999 9.48159 65.9013 9.72848 66.2061 10.0552L66.3771 9.3291H69.7374L67.7896 18.2753H64.5483L64.7416 17.3821C63.7082 18.1664 62.5411 18.5585 61.2327 18.5585C60.0209 18.5585 59.0619 18.239 58.3408 17.5927M64.1171 15.6393C64.1171 15.6393 64.1246 15.6393 64.132 15.6321C64.7862 15.269 65.2099 14.6155 65.3661 13.9038L65.4701 13.4246C65.5891 12.88 65.3735 12.3208 64.92 11.9868C64.5706 11.7327 64.1394 11.6019 63.6339 11.6019C62.95 11.6019 62.3478 11.798 61.8423 12.1974C61.3367 12.5968 61.0022 13.1341 60.8535 13.8167C60.8015 14.0273 60.7792 14.2597 60.7792 14.5066C60.7792 15.5159 61.4111 16.0169 62.6675 16.0169C63.173 16.0169 63.6636 15.8935 64.1246 15.6321" fill="#2A395D"/>
<path d="M81.5948 17.5854C80.8737 16.9392 80.5168 16.0605 80.5168 14.9568C80.5168 14.659 80.5615 14.2814 80.6507 13.8167C80.8514 12.8872 81.238 12.0522 81.803 11.326C82.368 10.5999 83.0593 10.0407 83.8845 9.64134C84.7023 9.24196 85.6018 9.0459 86.5683 9.0459C87.2076 9.0459 87.7726 9.13303 88.2633 9.30731C88.7614 9.48159 89.1628 9.72848 89.4676 10.0552L89.6386 9.3291H92.9988L91.0511 18.2753H87.8098L88.0031 17.3821C86.9697 18.1664 85.8025 18.5585 84.4941 18.5585C83.2824 18.5585 82.3234 18.239 81.6022 17.5927M87.3786 15.6393C87.3786 15.6393 87.386 15.6393 87.3935 15.6321C88.0477 15.269 88.4714 14.6155 88.6275 13.9038L88.7316 13.4246C88.8506 12.88 88.635 12.3208 88.1815 11.9868C87.8321 11.7327 87.4009 11.6019 86.8954 11.6019C86.2114 11.6019 85.6093 11.798 85.1037 12.1974C84.5982 12.5968 84.2637 13.1341 84.115 13.8167C84.063 14.0273 84.0406 14.2597 84.0406 14.5066C84.0406 15.5159 84.6726 16.0169 85.9289 16.0169C86.4345 16.0169 86.9251 15.8935 87.386 15.6321" fill="#2A395D"/>
<path d="M51.6423 9.32993H54.8836L54.6383 10.4482C55.0844 10.0488 55.6494 9.74383 56.3482 9.52599C57.0396 9.30814 57.783 9.19922 58.571 9.19922L58.0209 11.719C57.1808 11.719 56.4076 11.8351 55.7088 12.0748C55.7088 12.0748 55.694 12.0748 55.6865 12.0748C54.787 12.3798 54.1477 13.1785 53.9544 14.0935L53.0548 18.2761H49.6946L51.6423 9.32993Z" fill="#2A395D"/>
<path d="M77.729 9.32932L73.9301 12.9238L75.5434 5.50977H72.1831L69.4102 18.2755H72.7704L73.603 14.3398L76.2793 18.2755H80.1303L76.9856 13.6499L81.5799 9.32932H77.729Z" fill="#2A395D"/>
<path d="M77.781 9.32261L73.997 12.9098L75.6028 5.51758H72.2574L69.4845 18.2397H72.8373L73.6699 14.3185L76.3314 18.2397H80.1749L77.0376 13.6359L81.6171 9.32261H77.781Z" fill="#2A395D"/>
</g>
<defs>
<clipPath id="clip0_20831_89746">
<rect width="92.6667" height="24" fill="white" transform="translate(0.332031)"/>
</clipPath>
</defs>
</svg>
