<svg width="124" height="32" viewBox="0 0 124 32" fill="none" xmlns="http://www.w3.org/2000/svg">
<g clip-path="url(#clip0_20831_89703)">
<path d="M14.4879 2.16364C14.8271 2.37805 15.1564 2.57297 15.4856 2.76789C16.3837 3.29418 17.2318 3.79124 18.1896 4.70737C19.2972 5.75995 19.4967 7.7774 19.4768 8.44988L19.4169 10.2334H21.2529C24.5256 10.2334 27.1897 12.8356 27.1897 16.0324C27.1897 19.2291 24.5256 21.8313 21.2529 21.8313H19.4369L19.4768 23.6148C19.4967 24.3068 19.2972 26.3242 18.1896 27.3671C17.2218 28.2832 16.3737 28.7803 15.4856 29.3066C15.1564 29.5015 14.8171 29.6964 14.4879 29.9108C14.1486 29.6964 13.8193 29.5015 13.4901 29.3066C12.5921 28.7803 11.7439 28.2832 10.7861 27.3671C9.67853 26.3145 9.47897 24.2971 9.49893 23.6246L9.5588 21.841H7.72287C4.45013 21.841 1.78604 19.2388 1.78604 16.0421C1.78604 12.8454 4.45013 10.2432 7.72287 10.2432H9.53884C9.53884 10.2432 9.49893 9.56093 9.49893 8.45962C9.49893 7.68968 9.67853 5.7502 10.7861 4.70737C11.7539 3.79124 12.602 3.29418 13.4901 2.76789C13.8193 2.57297 14.1586 2.37805 14.4879 2.16364ZM14.4879 0C13.071 1.21826 11.4646 1.63735 9.53884 3.46961C7.61311 5.30188 7.71289 8.50835 7.71289 8.50835C3.45234 8.50835 0 11.8805 0 16.0421C0 20.2037 3.45234 23.5758 7.71289 23.5758C7.71289 23.5758 7.61311 26.7823 9.53884 28.6146C11.4646 30.4468 13.061 30.8659 14.4879 32.0842C15.9047 30.8659 17.5112 30.4468 19.4369 28.6146C21.3626 26.7823 21.2628 23.5758 21.2628 23.5758C25.5234 23.5758 28.9757 20.2037 28.9757 16.0421C28.9757 11.8805 25.5234 8.50835 21.2628 8.50835C21.2628 8.50835 21.3626 5.30188 19.4369 3.46961C17.5112 1.63735 15.9147 1.21826 14.4879 0Z" fill="#679436"/>
<path d="M24.0766 16.0423C16.1742 15.1261 15.4158 14.3854 14.4879 6.67627C13.55 14.3952 12.7917 15.1359 4.89917 16.0423C12.8016 16.9584 13.56 17.6991 14.4879 25.4083C15.4258 17.6894 16.1841 16.9487 24.0766 16.0423Z" fill="#679436"/>
<path d="M44.0398 12.0632C43.227 12.0632 42.4241 12.1794 41.6212 12.4214C40.8282 12.6635 40.1343 12.9927 39.5594 13.3993L40.8877 7.33838H36.4272L32.72 24.369H37.0417L37.2994 23.1782C38.2114 24.2238 39.5396 24.7466 41.2643 24.7466C43.3855 24.7466 45.1202 24.1851 46.4683 23.0523C47.8163 21.9292 48.6985 20.3897 49.1247 18.434C49.2437 17.9015 49.3032 17.3689 49.3032 16.8171C49.3032 15.3551 48.8373 14.2029 47.9055 13.3509C46.9738 12.4989 45.6852 12.0729 44.0398 12.0729M44.5255 18.434C44.3371 19.3441 43.9109 20.0605 43.227 20.5834C42.5529 21.1062 41.75 21.3676 40.8381 21.3676C40.1641 21.3676 39.5892 21.1933 39.1332 20.8545C38.5087 20.3897 38.2114 19.6055 38.3799 18.86L38.4988 18.3081C38.707 17.3496 39.2819 16.4782 40.1641 15.9941C40.1641 15.9941 40.174 15.9941 40.1839 15.9844C40.8084 15.6455 41.4626 15.4713 42.1465 15.4713C43.8118 15.4713 44.6444 16.149 44.6444 17.5142C44.6444 17.8434 44.6147 18.1532 44.5453 18.434" fill="#2A395D"/>
<path d="M51.0476 23.449C50.0861 22.5873 49.6104 21.4158 49.6104 19.9441C49.6104 19.5472 49.6698 19.0437 49.7888 18.4241C50.0564 17.1848 50.5718 16.0713 51.3252 15.1031C52.0785 14.1349 53.0003 13.3894 54.1006 12.8569C55.1909 12.3244 56.3903 12.063 57.6789 12.063C58.5314 12.063 59.2847 12.1792 59.9389 12.4115C60.603 12.6439 61.1383 12.9731 61.5447 13.4088L61.7727 12.4406H66.253L63.656 24.3688H59.3343L59.592 23.1779C58.2142 24.2236 56.658 24.7464 54.9134 24.7464C53.2977 24.7464 52.019 24.3204 51.0575 23.4587M58.7594 20.8543C58.7594 20.8543 58.7693 20.8543 58.7792 20.8446C59.6515 20.3605 60.2165 19.4891 60.4246 18.5403L60.5634 17.9012C60.722 17.1751 60.4345 16.4296 59.8299 15.9842C59.364 15.6453 58.7891 15.4711 58.1151 15.4711C57.2031 15.4711 56.4002 15.7325 55.7262 16.265C55.0522 16.7975 54.6061 17.514 54.4079 18.4241C54.3385 18.7048 54.3088 19.0147 54.3088 19.3439C54.3088 20.6897 55.1513 21.3577 56.8265 21.3577C57.5005 21.3577 58.1547 21.1931 58.7693 20.8446" fill="#2A395D"/>
<path d="M77.335 23.449C76.3735 22.5873 75.8977 21.4158 75.8977 19.9441C75.8977 19.5472 75.9572 19.0437 76.0761 18.4241C76.3438 17.1848 76.8592 16.0713 77.6125 15.1031C78.3659 14.1349 79.2877 13.3894 80.388 12.8569C81.4783 12.3244 82.6777 12.063 83.9663 12.063C84.8187 12.063 85.5721 12.1792 86.2263 12.4115C86.8904 12.6439 87.4256 12.9731 87.832 13.4088L88.06 12.4406H92.5404L89.9434 24.3688H85.6216L85.8793 23.1779C84.5015 24.2236 82.9453 24.7464 81.2008 24.7464C79.5851 24.7464 78.3064 24.3204 77.3449 23.4587M85.0467 20.8543C85.0467 20.8543 85.0566 20.8543 85.0665 20.8446C85.9388 20.3605 86.5038 19.4891 86.712 18.5403L86.8507 17.9012C87.0093 17.1751 86.7219 16.4296 86.1172 15.9842C85.6514 15.6453 85.0764 15.4711 84.4024 15.4711C83.4905 15.4711 82.6876 15.7325 82.0136 16.265C81.3395 16.7975 80.8935 17.514 80.6952 18.4241C80.6258 18.7048 80.5961 19.0147 80.5961 19.3439C80.5961 20.6897 81.4386 21.3577 83.1138 21.3577C83.7879 21.3577 84.4421 21.1931 85.0566 20.8446" fill="#2A395D"/>
<path d="M108.35 23.449C107.389 22.5873 106.913 21.4158 106.913 19.9441C106.913 19.5472 106.973 19.0437 107.092 18.4241C107.359 17.1848 107.875 16.0713 108.628 15.1031C109.381 14.1349 110.303 13.3894 111.403 12.8569C112.494 12.3244 113.693 12.063 114.982 12.063C115.834 12.063 116.587 12.1792 117.242 12.4115C117.906 12.6439 118.441 12.9731 118.847 13.4088L119.075 12.4406H123.556L120.959 24.3688H116.637L116.895 23.1779C115.517 24.2236 113.961 24.7464 112.216 24.7464C110.6 24.7464 109.322 24.3204 108.36 23.4587M116.062 20.8543C116.062 20.8543 116.072 20.8543 116.082 20.8446C116.954 20.3605 117.519 19.4891 117.727 18.5403L117.866 17.9012C118.025 17.1751 117.737 16.4296 117.133 15.9842C116.667 15.6453 116.092 15.4711 115.418 15.4711C114.506 15.4711 113.703 15.7325 113.029 16.265C112.355 16.7975 111.909 17.514 111.711 18.4241C111.641 18.7048 111.611 19.0147 111.611 19.3439C111.611 20.6897 112.454 21.3577 114.129 21.3577C114.803 21.3577 115.457 21.1931 116.072 20.8446" fill="#2A395D"/>
<path d="M68.4137 12.4404H72.7354L72.4083 13.9314C73.003 13.3989 73.7564 12.9923 74.6881 12.7018C75.61 12.4113 76.6012 12.2661 77.6519 12.2661L76.9184 15.6258C75.7983 15.6258 74.7674 15.7807 73.8357 16.1002C73.8357 16.1002 73.8158 16.1002 73.8059 16.1002C72.6065 16.5068 71.7541 17.5719 71.4964 18.7918L70.297 24.3686H65.8167L68.4137 12.4404Z" fill="#2A395D"/>
<path d="M103.196 12.4409L98.1306 17.2335L100.282 7.34814H95.8013L92.104 24.3691H96.5843L97.6945 19.1215L101.263 24.3691H106.397L102.205 18.2017L108.33 12.4409H103.196Z" fill="#2A395D"/>
<path d="M103.265 12.4308L98.2201 17.2137L100.361 7.35742H95.9006L92.2034 24.3203H96.6738L97.784 19.092L101.333 24.3203H106.457L102.274 18.1819L108.38 12.4308H103.265Z" fill="#2A395D"/>
</g>
<defs>
<clipPath id="clip0_20831_89703">
<rect width="123.556" height="32" fill="white"/>
</clipPath>
</defs>
</svg>
