<svg width="18" height="18" viewBox="0 0 18 18" fill="none" xmlns="http://www.w3.org/2000/svg">
<path d="M8.98364 10.126C9.37803 10.126 9.69775 9.80624 9.69775 9.41185C9.69775 9.01746 9.37803 8.69774 8.98364 8.69774C8.58925 8.69774 8.26953 9.01746 8.26953 9.41185C8.26953 9.80624 8.58925 10.126 8.98364 10.126Z" stroke="#0B0B22" stroke-width="1.6" stroke-linecap="round" stroke-linejoin="round"/>
<path d="M8.98364 5.12719C9.37803 5.12719 9.69775 4.80748 9.69775 4.41308C9.69775 4.01869 9.37803 3.69897 8.98364 3.69897C8.58925 3.69897 8.26953 4.01869 8.26953 4.41308C8.26953 4.80748 8.58925 5.12719 8.98364 5.12719Z" stroke="#0B0B22" stroke-width="1.6" stroke-linecap="round" stroke-linejoin="round"/>
<path d="M8.98364 15.1247C9.37803 15.1247 9.69775 14.805 9.69775 14.4106C9.69775 14.0162 9.37803 13.6965 8.98364 13.6965C8.58925 13.6965 8.26953 14.0162 8.26953 14.4106C8.26953 14.805 8.58925 15.1247 8.98364 15.1247Z" stroke="#0B0B22" stroke-width="1.6" stroke-linecap="round" stroke-linejoin="round"/>
</svg>
