<svg width="28" height="28" viewBox="0 0 28 28" fill="none" xmlns="http://www.w3.org/2000/svg">
<path d="M18.6667 5.83333C19.311 5.83333 19.8333 5.311 19.8333 4.66667C19.8333 4.02233 19.311 3.5 18.6667 3.5C18.0223 3.5 17.5 4.02233 17.5 4.66667C17.5 5.311 18.0223 5.83333 18.6667 5.83333Z" stroke="#280067" stroke-width="2" stroke-linecap="round" stroke-linejoin="round"/>
<path d="M21.0013 22.1667L22.168 14L15.168 15.1667" stroke="#280067" stroke-width="2" stroke-linecap="round" stroke-linejoin="round"/>
<path d="M5.83203 9.33398L9.33203 5.83398L15.7487 9.33398L12.9954 13.4173" stroke="#280067" stroke-width="2" stroke-linecap="round" stroke-linejoin="round"/>
<path d="M4.94622 16.916C4.61703 17.9929 4.60658 19.1421 4.91613 20.2248C5.22569 21.3075 5.84201 22.2775 6.69071 23.0176C7.5394 23.7578 8.58418 24.2364 9.69894 24.3959C10.8137 24.5553 11.9508 24.3886 12.9729 23.916" stroke="#280067" stroke-width="2" stroke-linecap="round" stroke-linejoin="round"/>
<path d="M16.054 20.4175C16.3832 19.3406 16.3936 18.1914 16.0841 17.1087C15.7745 16.026 15.1582 15.056 14.3095 14.3159C13.4608 13.5757 12.416 13.0971 11.3013 12.9377C10.1865 12.7782 9.04947 12.9449 8.02734 13.4175" stroke="#280067" stroke-width="2" stroke-linecap="round" stroke-linejoin="round"/>
</svg>
