<svg width="28" height="28" viewBox="0 0 28 28" fill="none" xmlns="http://www.w3.org/2000/svg">
<path d="M23.9689 17.8682C23.5267 17.671 23.0099 17.8682 22.8127 18.3092C22.4079 19.2133 21.842 20.0242 21.163 20.7487L19.042 17.209H20.9974C21.4804 17.209 21.8724 16.817 21.8724 16.334C21.8724 15.851 21.4804 15.459 20.9974 15.459H19.539V12.5423H20.9974C21.4804 12.5423 21.8724 12.1503 21.8724 11.6673C21.8724 11.1843 21.4804 10.7923 20.9974 10.7923H9.10903L7.86186 3.356C7.78136 2.87883 7.32403 2.55683 6.85386 2.63733C6.3767 2.71783 6.05586 3.16933 6.1352 3.64533L8.0182 14.8453C8.31453 15.9338 9.16036 16.7575 10.2034 17.069L7.99486 20.7463C7.32986 20.0358 6.7617 19.225 6.3487 18.3092C6.15036 17.8682 5.63236 17.6698 5.19136 17.8717C4.75036 18.07 4.55436 18.588 4.75386 19.029C5.44103 20.5527 6.46653 21.8512 7.7067 22.879C7.7137 22.8837 7.71836 22.8918 7.72536 22.8965C7.7277 22.8977 7.73003 22.8965 7.7312 22.8988C9.62703 24.461 12.0315 25.378 14.5807 25.378C17.4635 25.378 20.1725 24.2557 22.2107 22.2163C23.137 21.2912 23.8779 20.2178 24.4099 19.0267C24.607 18.5857 24.4099 18.0677 23.9689 17.8705V17.8682ZM9.7262 14.4697L9.40303 12.5423H17.7902V15.459H11.1145C10.4589 15.459 9.8802 15.0168 9.7262 14.4697ZM9.3342 21.9165L12.161 17.209H17.0027L19.8342 21.934C18.3105 23.0283 16.494 23.6257 14.5819 23.6257C12.6592 23.6257 10.8392 22.9945 9.3342 21.9165Z" fill="#004207"/>
</svg>
