<svg width="28" height="28" viewBox="0 0 28 28" fill="none" xmlns="http://www.w3.org/2000/svg">
<path d="M24.9912 12.7414C25.2001 12.6493 25.3773 12.4979 25.501 12.3061C25.6246 12.1142 25.6893 11.8902 25.6869 11.662C25.6846 11.4337 25.6153 11.2112 25.4877 11.0219C25.3601 10.8326 25.1798 10.6849 24.9691 10.5971L14.9696 6.04245C14.6656 5.90379 14.3353 5.83203 14.0012 5.83203C13.6671 5.83203 13.3369 5.90379 13.0329 6.04245L3.03456 10.5924C2.82686 10.6834 2.65016 10.8329 2.52609 11.0227C2.40202 11.2125 2.33594 11.4344 2.33594 11.6611C2.33594 11.8879 2.40202 12.1097 2.52609 12.2995C2.65016 12.4893 2.82686 12.6388 3.03456 12.7298L13.0329 17.2891C13.3369 17.4278 13.6671 17.4995 14.0012 17.4995C14.3353 17.4995 14.6656 17.4278 14.9696 17.2891L24.9912 12.7414Z" stroke="#640000" stroke-width="2" stroke-linecap="round" stroke-linejoin="round"/>
<path d="M25.668 11.666V18.666" stroke="#640000" stroke-width="2" stroke-linecap="round" stroke-linejoin="round"/>
<path d="M7 14.584V18.6673C7 19.5956 7.7375 20.4858 9.05025 21.1422C10.363 21.7986 12.1435 22.1673 14 22.1673C15.8565 22.1673 17.637 21.7986 18.9497 21.1422C20.2625 20.4858 21 19.5956 21 18.6673V14.584" stroke="#640000" stroke-width="2" stroke-linecap="round" stroke-linejoin="round"/>
</svg>
