<svg width="28" height="28" viewBox="0 0 28 28" fill="none" xmlns="http://www.w3.org/2000/svg">
<path fill-rule="evenodd" clip-rule="evenodd" d="M9.65869 2.37696C9.25643 2.37523 8.92927 2.69969 8.92792 3.10195V8.20075C8.90482 8.1996 8.88152 8.1996 8.85841 8.20075C8.48792 8.23772 8.20255 8.55333 8.20313 8.92555V11.8382C8.20447 12.2353 8.53086 12.5617 8.92792 12.5632H13.2975C13.2975 12.5651 13.2962 12.5669 13.2962 12.5688V14.0684C10.4305 14.428 8.20313 16.8814 8.20313 19.8424C8.20313 23.0495 10.814 25.6662 14.0211 25.6662C17.228 25.6662 19.8447 23.0495 19.8447 19.8424C19.8447 16.8833 17.6155 14.432 14.7517 14.0698V12.5688C14.7517 12.5669 14.7502 12.5651 14.7504 12.5632H19.1199C19.517 12.5617 19.8434 12.2353 19.8447 11.8382V8.92555C19.8434 8.52849 19.517 8.2021 19.1199 8.20075V3.10195C19.1186 2.69969 18.7914 2.37523 18.3892 2.37696H9.65869ZM10.3835 3.83252H12.5712V8.20075H10.3835V3.83252ZM14.0211 3.83252H17.6642V8.20075H14.0211V3.83252ZM9.65869 9.65631H18.3892V11.1132H9.65869V9.65631ZM14.0211 15.4743C16.4416 15.4743 18.3892 17.4219 18.3892 19.8424C18.3892 22.263 16.4416 24.2106 14.0211 24.2106C11.6005 24.2106 9.65869 22.263 9.65869 19.8424C9.65869 17.4219 11.6005 15.4743 14.0211 15.4743ZM14.0211 16.9312C12.4221 16.9312 11.1156 18.2435 11.1156 19.8424C11.1156 21.4414 12.4221 22.755 14.0211 22.755C15.62 22.755 16.9336 21.4414 16.9336 19.8424C16.9336 18.2435 15.62 16.9312 14.0211 16.9312ZM14.0211 18.3868C14.8336 18.3868 15.4767 19.03 15.4767 19.8424C15.4767 20.655 14.8336 21.2979 14.0211 21.2979C13.2085 21.2979 12.5656 20.655 12.5656 19.8424C12.5656 19.03 13.2085 18.3868 14.0211 18.3868Z" fill="#001085"/>
</svg>
