<svg width="43" height="43" viewBox="0 0 43 43" fill="none" xmlns="http://www.w3.org/2000/svg">
<path d="M5.60645 25.0376C5.60645 28.0445 12.6815 30.3439 21.5253 30.3439C30.3691 30.3439 37.4441 28.0445 37.4441 25.0376" stroke="#0B0B22" stroke-width="2.35835" stroke-linecap="round" stroke-linejoin="round"/>
<path d="M5.60645 17.9624C5.60645 20.9693 12.6815 23.2687 21.5253 23.2687C30.3691 23.2687 37.4441 20.9693 37.4441 17.9624" stroke="#0B0B22" stroke-width="2.35835" stroke-linecap="round" stroke-linejoin="round"/>
<path d="M21.5253 16.1939C30.317 16.1939 37.4441 13.8182 37.4441 10.8876C37.4441 7.957 30.317 5.5813 21.5253 5.5813C12.7336 5.5813 5.60645 7.957 5.60645 10.8876C5.60645 13.8182 12.7336 16.1939 21.5253 16.1939Z" stroke="#0B0B22" stroke-width="2.35835" stroke-linecap="round" stroke-linejoin="round"/>
<path d="M5.60645 10.8875V32.1126C5.60645 35.1195 12.6815 37.4188 21.5253 37.4188C30.3691 37.4188 37.4441 35.1195 37.4441 32.1126V10.8875" stroke="#0B0B22" stroke-width="2.35835" stroke-linecap="round" stroke-linejoin="round"/>
</svg>
